<svg width="511" height="400" viewBox="0 0 511 400" fill="none" xmlns="http://www.w3.org/2000/svg">
<path d="M155.56 349.329C154.766 351.446 158.149 354.508 158.149 354.508V358.651C158.149 358.651 147.791 359.687 143.13 363.83C138.194 368.217 134.119 371.479 132.254 377.813C130.941 382.276 132.254 389.725 132.254 389.725C132.254 389.725 140.489 394.306 146.237 395.94C151.933 397.559 155.336 397.981 161.256 398.011C169.904 398.056 174.897 396.865 183.008 393.868C190.14 391.234 200.099 384.546 200.099 384.546V366.42C200.099 366.42 199.581 361.759 198.027 357.098C197.598 355.81 193.884 354.508 193.884 354.508C193.884 354.508 199.721 350.459 198.027 346.222C195.907 340.92 188.718 337.935 183.008 337.935C175.757 337.935 170.026 338.052 163.328 342.078C159.281 344.511 157.113 345.186 155.56 349.329Z" fill="white" stroke="#191919" stroke-linecap="round"/>
<path d="M194.92 353.99L190.776 355.544" stroke="#191919" stroke-linecap="round"/>
<path d="M158.149 358.651C158.149 358.651 164.848 357.88 169.025 358.651C172.61 359.314 174.638 359.995 177.829 361.759C182.092 364.114 187.151 370.045 187.151 370.045" stroke="#191919" stroke-linecap="round"/>
<path d="M158.149 354.508L163.328 355.544" stroke="#191919" stroke-linecap="round"/>
<path d="M168.507 210.014C165.699 210.11 159.771 216.229 159.771 216.229L162.81 280.201L165.792 344.668C165.792 344.668 172.65 348.293 175.24 348.293L185.061 344.668L182.49 280.201L179.04 216.229C179.04 216.229 171.491 209.912 168.507 210.014Z" fill="#191919" stroke="#191919" stroke-linecap="round"/>
<path d="M287.624 349.847C288.418 351.964 285.034 355.026 285.034 355.026V359.169C285.034 359.169 295.392 360.205 300.053 364.348C304.989 368.735 309.065 371.997 310.929 378.331C312.243 382.794 310.929 390.243 310.929 390.243C310.929 390.243 302.694 394.824 296.946 396.458C291.251 398.077 287.847 398.499 281.927 398.529C273.28 398.574 268.287 397.383 260.175 394.386C253.043 391.752 243.084 385.064 243.084 385.064V366.938C243.084 366.938 243.602 362.277 245.156 357.616C245.585 356.329 249.299 355.026 249.299 355.026C249.299 355.026 243.462 350.977 245.156 346.74C247.276 341.438 254.465 338.453 260.175 338.453C267.426 338.453 273.157 338.57 279.855 342.596C283.902 345.029 286.07 345.704 287.624 349.847Z" fill="white" stroke="#191919" stroke-linecap="round"/>
<path d="M248.263 354.508L252.407 356.062" stroke="#191919" stroke-linecap="round"/>
<path d="M285.034 359.169C285.034 359.169 278.335 358.398 274.158 359.169C270.573 359.832 268.546 360.514 265.354 362.277C261.091 364.632 256.032 370.563 256.032 370.563" stroke="#191919" stroke-linecap="round"/>
<path d="M285.034 355.026L279.855 356.062" stroke="#191919" stroke-linecap="round"/>
<path d="M261.211 207.945C264.019 208.041 268.961 211.57 268.961 211.57L271.051 280.602L272.574 344.832C272.574 344.832 267.426 348.295 264.836 348.295L256.115 346.437L254.478 280.602L251.298 211.57C251.298 211.57 258.226 207.843 261.211 207.945Z" fill="#191919" stroke="#191919" stroke-linecap="round"/>
<rect x="114.988" y="0.5" width="218.573" height="250.099" fill="#FE621D" stroke="black"/>
<path d="M82.1125 182.54L98.1972 137.038C98.1972 137.038 101.465 127.004 107.491 129.969C114.039 133.191 114.743 141.752 114.743 141.752L102.959 194.323L82.1125 234.204L65.7975 218.796L82.1125 182.54Z" fill="#191919" stroke="#191919" stroke-linecap="round"/>
<path d="M45.1669 227.286C48.3902 226.776 48.9217 226.482 51.4413 224.408C54.3846 221.985 53.442 218.141 56.6725 216.117C59.372 214.425 61.7808 214.98 64.8275 215.911C70.3097 217.586 76.1663 220.369 81.3655 224.561C85.8512 228.178 88.741 231.629 89.7942 235.229C90.6887 238.287 90.9254 240.801 89.0935 243.407C87.5433 245.613 84.6085 245.333 82.7963 245.379C82.8648 248.097 83.4493 251.812 83.0473 255.346C82.4355 260.726 80.8258 263.11 78.8364 268.146C76.8469 273.182 71.8614 279.201 66.5617 284.775C63.5843 287.906 57.4239 294.059 53.1755 293.272C50.4572 292.769 48.5309 288.856 48.5309 288.856C48.5309 288.856 43.153 292.878 39.5839 293.614L39.4208 293.648C35.6342 294.43 33.0493 294.964 30.4773 292.03C29.2207 290.597 29.4342 286.617 29.4342 286.617C29.4342 286.617 23.0928 290.2 19.5356 289.586C16.2449 289.018 12.1498 284.332 12.1498 284.332C12.1498 284.332 5.61953 288.893 3.13436 286.372C1.13075 284.34 1.3205 282.355 2.97473 280.03C5.58266 276.363 7.17545 275.511 10.8881 273.525L10.9699 273.481C19.8031 268.756 26.1911 265.845 29.7243 262.129C33.5108 258.147 39.4745 251.645 37.4912 246.52C35.3651 241.026 29.1994 241.289 23.6943 238.707C18.6882 236.36 11.6526 232.883 14.3594 228.062C15.9094 225.302 17.489 224.805 20.6109 224.278C25.026 223.534 28.0504 226.964 32.4815 227.606C37.3858 228.317 40.2724 228.062 45.1669 227.286Z" fill="white" stroke="#191919" stroke-linecap="round"/>
<path d="M40.5518 260.043C40.5518 260.043 46.9202 264.555 51.5848 266.112C57.6657 268.141 67.9403 267.513 67.9403 267.513" stroke="#191919" stroke-linecap="round"/>
<path d="M12.1499 284.332C12.1499 284.332 12.9939 280.282 14.7313 278.827C16.7978 277.096 19.3034 276.607 21.9117 275.926C25.3365 275.032 30.9727 275.698 30.9727 275.698L43.43 266.317M29.4343 286.617C29.4343 286.617 31.6938 281.919 34.7112 280.137C38.4193 277.948 47.3282 277.099 47.3282 277.099L54.3945 269.668M48.5309 288.856C48.5309 288.856 49.0534 284.4 50.1834 282.467C51.9702 279.412 56.4349 278.683 56.4349 278.683L63.5011 271.252" stroke="#191919" stroke-linecap="round"/>
<path d="M49.6747 226.266C49.6747 226.266 54.0573 224.936 56.9008 225.178C59.9142 225.434 64.218 227.713 64.218 227.713" stroke="#191919" stroke-linecap="round"/>
<path d="M71.6498 234.78C71.6498 234.78 68.2123 236.493 66.3268 239.447C65.0491 241.448 63.9573 243.491 63.7682 245.858C63.5275 248.873 64.1677 251.413 65.7863 253.967C66.9993 255.882 69.5248 258.407 69.5248 258.407" stroke="#191919" stroke-linecap="round"/>
<rect x="105.586" y="9.90234" width="218.573" height="250.099" fill="#FE621D" stroke="black"/>
<rect x="119.413" y="26.4949" width="191.472" height="190.919" fill="white" stroke="black"/>
<path d="M255.171 52.5427C255.171 52.5427 267.144 54.755 273.441 58.9371C278.484 62.2865 284.403 69.8989 284.403 69.8989" stroke="#191919" stroke-linecap="round"/>
<path d="M164.736 52.5427C164.736 52.5427 152.764 54.755 146.467 58.9371C141.424 62.2865 135.505 69.8989 135.505 69.8989" stroke="#191919" stroke-linecap="round"/>
<path d="M159.255 146.631C159.255 146.631 159.821 155.179 158.342 160.334C157.373 163.711 156.517 165.555 154.688 168.555C150.877 174.804 140.986 181.344 140.986 181.344" stroke="#191919" stroke-linecap="round"/>
<path d="M267.153 147.545C267.153 147.545 266.587 156.092 268.066 161.247C269.035 164.624 269.891 166.469 271.72 169.468C275.531 175.718 285.422 182.257 285.422 182.257" stroke="#191919" stroke-linecap="round"/>
<path d="M192.141 194.133C192.141 194.133 203.249 195.594 210.411 195.959C217.892 196.341 229.594 195.959 229.594 195.959" stroke="#191919" stroke-linecap="round"/>
<path d="M154.688 168.555C154.688 168.555 170.563 174.624 181.179 176.776C192.068 178.984 198.391 179.208 209.497 179.517C222.711 179.884 230.26 179.88 243.296 177.69C254.219 175.855 270.7 170.382 270.7 170.382" stroke="#191919" stroke-linecap="round"/>
<path d="M216.805 133.843C216.805 133.843 207.67 133.843 201.276 135.67C197.622 136.714 192.141 139.324 189.4 142.064C186.767 144.697 185.442 148.592 186.66 152.112C187.826 155.484 191.227 157.593 194.881 158.507C199.449 159.649 214.064 158.507 214.064 158.507" stroke="#191919" stroke-linecap="round"/>
<path d="M200.776 103.698C200.776 121.641 187.859 136.083 172.044 136.083C156.23 136.083 143.313 121.641 143.313 103.698C143.313 85.7548 156.23 71.3124 172.044 71.3124C187.859 71.3124 200.776 85.7548 200.776 103.698Z" fill="white" stroke="#191919"/>
<path d="M200.776 103.698C200.776 112.179 198.247 119.837 194.184 125.363C190.121 130.89 184.548 134.256 178.439 134.256C172.329 134.256 166.757 130.89 162.693 125.363C158.63 119.837 156.102 112.179 156.102 103.698C156.102 95.2167 158.63 87.5585 162.693 82.0324C166.757 76.5061 172.329 73.1394 178.439 73.1394C184.548 73.1394 190.121 76.5061 194.184 82.0324C198.247 87.5585 200.776 95.2167 200.776 103.698Z" fill="#191919" stroke="#191919"/>
<path d="M275.681 103.698C275.681 121.641 262.764 136.083 246.95 136.083C231.136 136.083 218.218 121.641 218.218 103.698C218.218 85.7548 231.136 71.3124 246.95 71.3124C262.764 71.3124 275.681 85.7548 275.681 103.698Z" fill="white" stroke="#191919"/>
<path d="M275.681 103.698C275.681 112.179 273.153 119.837 269.09 125.363C265.026 130.89 259.454 134.256 253.344 134.256C247.235 134.256 241.662 130.89 237.599 125.363C233.536 119.837 231.007 112.179 231.007 103.698C231.007 95.2167 233.536 87.5585 237.599 82.0324C241.662 76.5061 247.235 73.1394 253.344 73.1394C259.454 73.1394 265.026 76.5061 269.09 82.0324C273.153 87.5585 275.681 95.2167 275.681 103.698Z" fill="#191919" stroke="#191919"/>
<path d="M361.931 206.311C380.942 207.251 407.247 209.133 407.247 209.133C407.247 209.133 405.544 203.49 406.128 197.846C406.713 192.203 412.838 186.56 412.838 186.56C412.838 186.56 365.286 186.559 355.222 180.916C341.522 173.234 339.863 148.423 336.544 137.881C332.795 132.607 330.013 126.853 324.754 126.853C316.926 126.853 316.645 134.118 315.527 137.881C315.527 152.059 329.501 193.143 332.856 195.965C340.867 202.704 350.622 205.752 361.931 206.311Z" fill="#191919" stroke="#191919" stroke-linecap="round"/>
<path d="M416 178.102C420.48 178.786 423.083 183.528 423.083 183.528L489.79 177.716C489.79 177.716 495.083 175.241 500.551 174.764C503.286 174.526 504.82 175.912 505.274 178.382C505.782 181.148 504.546 182.479 502.55 184.63L502.517 184.665C499.392 188.032 496.719 189.721 492.016 190.616C482.261 192.473 470.233 193.521 470.233 193.521C470.233 193.521 474.193 196.463 475.762 200.09C477.495 204.095 477.993 206.896 476.72 211.085C474.845 217.26 472.897 221.963 466.283 224.081C460.862 225.817 457.621 225.843 453.16 225.224C451.47 224.99 447.519 223.701 447.519 223.701C447.519 223.701 450.709 233.032 448.826 238.696C447.317 243.232 447.247 245.884 441.954 248.359C438.521 249.965 436.397 247.836 435.044 244.932C432.44 239.346 435.836 236.582 432.731 231.033C429.297 224.898 416.203 218.372 416.203 218.372C416.203 218.372 413.846 220.867 410.996 221.847C406.4 223.428 402.814 221.143 399.625 217.802C395.821 213.816 395.674 210.402 395.211 205.093C394.863 201.094 395.977 195.921 398.368 190.717C401.682 183.502 407.635 176.824 416 178.102Z" fill="white" stroke="#191919" stroke-linecap="round"/>
<path d="M441.674 181.908C441.674 181.908 432.203 184.738 428.813 186.05C423.519 188.099 418.226 191.001 418.226 191.001M408.074 200.951C408.074 200.951 407.195 205.729 407.676 209.043C408.433 214.262 416.203 218.372 416.203 218.372M423.083 183.528C423.083 183.528 420.419 183.784 418.796 184.909C417.173 186.033 414.683 188.288 414.683 188.288" stroke="#191919" stroke-linecap="round"/>
<path d="M471.325 193.426C471.325 193.426 465.963 193.516 462.577 194.188C458.44 195.009 454.217 195.91 450.809 198.235C446.153 201.411 444.66 202.961 442.844 207.993C442.579 208.726 442.361 209.409 442.192 210.065M447.518 223.702C447.518 223.702 443.563 220.088 442.534 217.085C441.628 214.442 441.581 212.438 442.192 210.065M471.499 195.425C471.499 195.425 473.427 200.166 473.29 203.327C473.122 207.188 472.63 209.106 470.793 212.609C468.927 216.165 467.112 218.701 463.834 221.273C461.034 223.47 455.347 225.034 455.347 225.034M442.192 210.065C442.192 210.065 448.17 208.23 451.767 209.23C452.147 209.336 452.529 209.476 452.904 209.637M457.583 212.753C457.583 212.753 455.374 210.703 452.904 209.637M452.904 209.637C452.904 209.637 455.772 208.88 457.147 207.755C459.025 206.219 459.993 202.471 459.993 202.471" stroke="#191919" stroke-linecap="round"/>
</svg>
