<svg width="81" height="94" viewBox="0 0 81 94" fill="none" xmlns="http://www.w3.org/2000/svg">
<path d="M30.5 35C41.0239 21.4336 41 1 41 1C41 1 41.6485 21.2046 52.5 35C61.0975 45.93 80.5 46.5 80.5 46.5C80.5 46.5 64.1234 47.2109 55 54C42.5736 63.247 41.1616 88.948 41.0157 92.9681C41.008 93.3145 41 93.5 41 93.5C41 93.5 41.0032 93.3146 41.0157 92.9681C41.1021 89.0919 41.1506 65.0712 29.5 55.5C19.3995 47.2022 1.51788 46.5182 1.01101 46.5004C1.0037 46.5001 1 46.5 1 46.5C1 46.5 1.0037 46.5001 1.01101 46.5004C1.54196 46.5177 21.1356 47.0718 30.5 35Z" fill="#FE621D"/>
<path d="M41 1C41 1 41.0239 21.4336 30.5 35C21.0065 47.2381 1 46.5 1 46.5C1 46.5 19.2537 47.0824 29.5 55.5C42.1916 65.9265 41 93.5 41 93.5C41 93.5 41.5027 64.0439 55 54C64.1234 47.2109 80.5 46.5 80.5 46.5C80.5 46.5 61.0975 45.93 52.5 35C41.6485 21.2046 41 1 41 1Z" stroke="#191919" stroke-linecap="round"/>
</svg>
