<svg width="45" height="51" viewBox="0 0 45 51" fill="none" xmlns="http://www.w3.org/2000/svg">
<path d="M16.956 19.0108C22.6481 11.8243 22.6352 1 22.6352 1C22.6352 1 22.986 11.703 28.8553 19.0108C33.5056 24.8007 44 25.1027 44 25.1027C44 25.1027 35.1422 25.4793 30.2075 29.0757C23.4863 33.9741 22.7226 47.5887 22.6437 49.7182C22.6396 49.9017 22.6352 50 22.6352 50C22.6352 50 22.6369 49.9018 22.6437 49.7182C22.6904 47.6649 22.7167 34.9404 16.4151 29.8703C10.8731 25.4112 1 25.1027 1 25.1027C1 25.1027 11.8211 25.4937 16.956 19.0108Z" fill="#E3180B"/>
<path d="M22.6352 1C22.6352 1 22.6481 11.8243 16.956 19.0108C11.8211 25.4937 1 25.1027 1 25.1027C1 25.1027 10.8731 25.4112 16.4151 29.8703C23.2797 35.3935 22.6352 50 22.6352 50C22.6352 50 22.9071 34.3962 30.2075 29.0757C35.1422 25.4793 44 25.1027 44 25.1027C44 25.1027 33.5056 24.8007 28.8553 19.0108C22.986 11.703 22.6352 1 22.6352 1Z" stroke="#191919" stroke-linecap="round"/>
</svg>
